<svg width="250" height="300" viewBox="0 0 250 300" fill="none" xmlns="http://www.w3.org/2000/svg">
<rect width="250" height="300" fill="#E5E5E5"/>
<path d="M0 0H250V300H0V0Z" fill="#C4C4C4"/>
<path d="M0 0H250V94H0V0Z" fill="#FFFBFB"/>
<path d="M31.6328 20.5918H27.5195V32H25.8408V20.5918H21.7363V19.2031H31.6328V20.5918ZM34.9023 23.6416C35.623 22.7568 36.5605 22.3145 37.7148 22.3145C39.7246 22.3145 40.7383 23.4482 40.7559 25.7158V32H39.1299V25.707C39.124 25.0215 38.9658 24.5146 38.6553 24.1865C38.3506 23.8584 37.873 23.6943 37.2227 23.6943C36.6953 23.6943 36.2324 23.835 35.834 24.1162C35.4355 24.3975 35.125 24.7666 34.9023 25.2236V32H33.2764V18.5H34.9023V23.6416ZM44.957 32H43.3311V22.4902H44.957V32ZM43.1992 19.9678C43.1992 19.7041 43.2783 19.4814 43.4365 19.2998C43.6006 19.1182 43.8408 19.0273 44.1572 19.0273C44.4736 19.0273 44.7139 19.1182 44.8779 19.2998C45.042 19.4814 45.124 19.7041 45.124 19.9678C45.124 20.2314 45.042 20.4512 44.8779 20.627C44.7139 20.8027 44.4736 20.8906 44.1572 20.8906C43.8408 20.8906 43.6006 20.8027 43.4365 20.627C43.2783 20.4512 43.1992 20.2314 43.1992 19.9678ZM53.1045 29.4775C53.1045 29.0381 52.9375 28.6982 52.6035 28.458C52.2754 28.2119 51.6982 28.001 50.8721 27.8252C50.0518 27.6494 49.3984 27.4385 48.9121 27.1924C48.4316 26.9463 48.0742 26.6533 47.8398 26.3135C47.6113 25.9736 47.4971 25.5693 47.4971 25.1006C47.4971 24.3213 47.8252 23.6621 48.4814 23.123C49.1436 22.584 49.9873 22.3145 51.0127 22.3145C52.0908 22.3145 52.9639 22.5928 53.6318 23.1494C54.3057 23.7061 54.6426 24.418 54.6426 25.2852H53.0078C53.0078 24.8398 52.8174 24.4561 52.4365 24.1338C52.0615 23.8115 51.5869 23.6504 51.0127 23.6504C50.4209 23.6504 49.958 23.7793 49.624 24.0371C49.29 24.2949 49.123 24.6318 49.123 25.0479C49.123 25.4404 49.2783 25.7363 49.5889 25.9355C49.8994 26.1348 50.459 26.3252 51.2676 26.5068C52.082 26.6885 52.7412 26.9053 53.2451 27.1572C53.749 27.4092 54.1211 27.7139 54.3613 28.0713C54.6074 28.4229 54.7305 28.8535 54.7305 29.3633C54.7305 30.2129 54.3906 30.8955 53.7109 31.4111C53.0312 31.9209 52.1494 32.1758 51.0654 32.1758C50.3037 32.1758 49.6299 32.041 49.0439 31.7715C48.458 31.502 47.998 31.127 47.6641 30.6465C47.3359 30.1602 47.1719 29.6357 47.1719 29.0732H48.7979C48.8271 29.6182 49.0439 30.0518 49.4482 30.374C49.8584 30.6904 50.3975 30.8486 51.0654 30.8486C51.6807 30.8486 52.1729 30.7256 52.542 30.4795C52.917 30.2275 53.1045 29.8936 53.1045 29.4775ZM63.0801 32H61.4541V22.4902H63.0801V32ZM61.3223 19.9678C61.3223 19.7041 61.4014 19.4814 61.5596 19.2998C61.7236 19.1182 61.9639 19.0273 62.2803 19.0273C62.5967 19.0273 62.8369 19.1182 63.001 19.2998C63.165 19.4814 63.2471 19.7041 63.2471 19.9678C63.2471 20.2314 63.165 20.4512 63.001 20.627C62.8369 20.8027 62.5967 20.8906 62.2803 20.8906C61.9639 20.8906 61.7236 20.8027 61.5596 20.627C61.4014 20.4512 61.3223 20.2314 61.3223 19.9678ZM71.2275 29.4775C71.2275 29.0381 71.0605 28.6982 70.7266 28.458C70.3984 28.2119 69.8213 28.001 68.9951 27.8252C68.1748 27.6494 67.5215 27.4385 67.0352 27.1924C66.5547 26.9463 66.1973 26.6533 65.9629 26.3135C65.7344 25.9736 65.6201 25.5693 65.6201 25.1006C65.6201 24.3213 65.9482 23.6621 66.6045 23.123C67.2666 22.584 68.1104 22.3145 69.1357 22.3145C70.2139 22.3145 71.0869 22.5928 71.7549 23.1494C72.4287 23.7061 72.7656 24.418 72.7656 25.2852H71.1309C71.1309 24.8398 70.9404 24.4561 70.5596 24.1338C70.1846 23.8115 69.71 23.6504 69.1357 23.6504C68.5439 23.6504 68.0811 23.7793 67.7471 24.0371C67.4131 24.2949 67.2461 24.6318 67.2461 25.0479C67.2461 25.4404 67.4014 25.7363 67.7119 25.9355C68.0225 26.1348 68.582 26.3252 69.3906 26.5068C70.2051 26.6885 70.8643 26.9053 71.3682 27.1572C71.8721 27.4092 72.2441 27.7139 72.4844 28.0713C72.7305 28.4229 72.8535 28.8535 72.8535 29.3633C72.8535 30.2129 72.5137 30.8955 71.834 31.4111C71.1543 31.9209 70.2725 32.1758 69.1885 32.1758C68.4268 32.1758 67.7529 32.041 67.167 31.7715C66.5811 31.502 66.1211 31.127 65.7871 30.6465C65.459 30.1602 65.2949 29.6357 65.2949 29.0732H66.9209C66.9502 29.6182 67.167 30.0518 67.5713 30.374C67.9814 30.6904 68.5205 30.8486 69.1885 30.8486C69.8037 30.8486 70.2959 30.7256 70.665 30.4795C71.04 30.2275 71.2275 29.8936 71.2275 29.4775ZM80.2363 32V23.7471H78.7334V22.4902H80.2363V21.5146C80.2363 20.4951 80.5088 19.707 81.0537 19.1504C81.5986 18.5938 82.3691 18.3154 83.3652 18.3154C83.7402 18.3154 84.1123 18.3652 84.4814 18.4648L84.3936 19.7832C84.1182 19.7305 83.8252 19.7041 83.5146 19.7041C82.9873 19.7041 82.5801 19.8594 82.293 20.1699C82.0059 20.4746 81.8623 20.9141 81.8623 21.4883V22.4902H83.8926V23.7471H81.8623V32H80.2363ZM85.2637 27.1572C85.2637 26.2256 85.4453 25.3877 85.8086 24.6436C86.1777 23.8994 86.6875 23.3252 87.3379 22.9209C87.9941 22.5166 88.7412 22.3145 89.5791 22.3145C90.874 22.3145 91.9199 22.7627 92.7168 23.6592C93.5195 24.5557 93.9209 25.748 93.9209 27.2363V27.3506C93.9209 28.2764 93.7422 29.1084 93.3848 29.8467C93.0332 30.5791 92.5264 31.1504 91.8643 31.5605C91.208 31.9707 90.4521 32.1758 89.5967 32.1758C88.3076 32.1758 87.2617 31.7275 86.459 30.8311C85.6621 29.9346 85.2637 28.748 85.2637 27.2715V27.1572ZM86.8984 27.3506C86.8984 28.4053 87.1416 29.252 87.6279 29.8906C88.1201 30.5293 88.7764 30.8486 89.5967 30.8486C90.4229 30.8486 91.0791 30.5264 91.5654 29.8818C92.0518 29.2314 92.2949 28.3232 92.2949 27.1572C92.2949 26.1143 92.0459 25.2705 91.5479 24.626C91.0557 23.9756 90.3994 23.6504 89.5791 23.6504C88.7764 23.6504 88.1289 23.9697 87.6367 24.6084C87.1445 25.2471 86.8984 26.1611 86.8984 27.3506ZM100.557 23.9492C100.311 23.9082 100.044 23.8877 99.7568 23.8877C98.6904 23.8877 97.9668 24.3418 97.5859 25.25V32H95.96V22.4902H97.542L97.5684 23.5889C98.1016 22.7393 98.8574 22.3145 99.8359 22.3145C100.152 22.3145 100.393 22.3555 100.557 22.4375V23.9492ZM110.471 32.1758C109.182 32.1758 108.133 31.7539 107.324 30.9102C106.516 30.0605 106.111 28.9268 106.111 27.5088V27.21C106.111 26.2666 106.29 25.4258 106.647 24.6875C107.011 23.9434 107.515 23.3633 108.159 22.9473C108.81 22.5254 109.513 22.3145 110.269 22.3145C111.505 22.3145 112.466 22.7217 113.151 23.5361C113.837 24.3506 114.18 25.5166 114.18 27.0342V27.7109H107.737C107.761 28.6484 108.033 29.4072 108.555 29.9873C109.082 30.5615 109.75 30.8486 110.559 30.8486C111.133 30.8486 111.619 30.7314 112.018 30.4971C112.416 30.2627 112.765 29.9521 113.063 29.5654L114.057 30.3389C113.26 31.5635 112.064 32.1758 110.471 32.1758ZM110.269 23.6504C109.612 23.6504 109.062 23.8906 108.616 24.3711C108.171 24.8457 107.896 25.5137 107.79 26.375H112.554V26.252C112.507 25.4258 112.284 24.7871 111.886 24.3359C111.487 23.8789 110.948 23.6504 110.269 23.6504ZM119.26 25.9619L121.369 22.4902H123.268L120.156 27.1924L123.364 32H121.483L119.286 28.4404L117.089 32H115.199L118.407 27.1924L115.296 22.4902H117.177L119.26 25.9619ZM127.205 20.1875V22.4902H128.98V23.7471H127.205V29.6445C127.205 30.0254 127.284 30.3125 127.442 30.5059C127.601 30.6934 127.87 30.7871 128.251 30.7871C128.438 30.7871 128.696 30.752 129.024 30.6816V32C128.597 32.1172 128.181 32.1758 127.776 32.1758C127.05 32.1758 126.502 31.9561 126.133 31.5166C125.764 31.0771 125.579 30.4531 125.579 29.6445V23.7471H123.848V22.4902H125.579V20.1875H127.205ZM135.484 23.9492C135.238 23.9082 134.972 23.8877 134.685 23.8877C133.618 23.8877 132.895 24.3418 132.514 25.25V32H130.888V22.4902H132.47L132.496 23.5889C133.029 22.7393 133.785 22.3145 134.764 22.3145C135.08 22.3145 135.32 22.3555 135.484 22.4375V23.9492ZM142.507 32C142.413 31.8125 142.337 31.4785 142.278 30.998C141.522 31.7832 140.62 32.1758 139.571 32.1758C138.634 32.1758 137.863 31.9121 137.26 31.3848C136.662 30.8516 136.363 30.1777 136.363 29.3633C136.363 28.373 136.738 27.6055 137.488 27.0605C138.244 26.5098 139.305 26.2344 140.67 26.2344H142.252V25.4873C142.252 24.9189 142.082 24.4678 141.742 24.1338C141.402 23.7939 140.901 23.624 140.239 23.624C139.659 23.624 139.173 23.7705 138.78 24.0635C138.388 24.3564 138.191 24.7109 138.191 25.127H136.557C136.557 24.6523 136.724 24.1953 137.058 23.7559C137.397 23.3105 137.854 22.959 138.429 22.7012C139.009 22.4434 139.645 22.3145 140.336 22.3145C141.432 22.3145 142.29 22.5898 142.911 23.1406C143.532 23.6855 143.854 24.4385 143.878 25.3994V29.7764C143.878 30.6494 143.989 31.3438 144.212 31.8594V32H142.507ZM139.809 30.7607C140.318 30.7607 140.802 30.6289 141.259 30.3652C141.716 30.1016 142.047 29.7588 142.252 29.3369V27.3857H140.978C138.985 27.3857 137.989 27.9688 137.989 29.1348C137.989 29.6445 138.159 30.043 138.499 30.3301C138.839 30.6172 139.275 30.7607 139.809 30.7607ZM153.098 20.1875V22.4902H154.873V23.7471H153.098V29.6445C153.098 30.0254 153.177 30.3125 153.335 30.5059C153.493 30.6934 153.763 30.7871 154.144 30.7871C154.331 30.7871 154.589 30.752 154.917 30.6816V32C154.489 32.1172 154.073 32.1758 153.669 32.1758C152.942 32.1758 152.395 31.9561 152.025 31.5166C151.656 31.0771 151.472 30.4531 151.472 29.6445V23.7471H149.74V22.4902H151.472V20.1875H153.098ZM160.727 32.1758C159.438 32.1758 158.389 31.7539 157.58 30.9102C156.771 30.0605 156.367 28.9268 156.367 27.5088V27.21C156.367 26.2666 156.546 25.4258 156.903 24.6875C157.267 23.9434 157.771 23.3633 158.415 22.9473C159.065 22.5254 159.769 22.3145 160.524 22.3145C161.761 22.3145 162.722 22.7217 163.407 23.5361C164.093 24.3506 164.436 25.5166 164.436 27.0342V27.7109H157.993C158.017 28.6484 158.289 29.4072 158.811 29.9873C159.338 30.5615 160.006 30.8486 160.814 30.8486C161.389 30.8486 161.875 30.7314 162.273 30.4971C162.672 30.2627 163.021 29.9521 163.319 29.5654L164.312 30.3389C163.516 31.5635 162.32 32.1758 160.727 32.1758ZM160.524 23.6504C159.868 23.6504 159.317 23.8906 158.872 24.3711C158.427 24.8457 158.151 25.5137 158.046 26.375H162.81V26.252C162.763 25.4258 162.54 24.7871 162.142 24.3359C161.743 23.8789 161.204 23.6504 160.524 23.6504ZM169.516 25.9619L171.625 22.4902H173.523L170.412 27.1924L173.62 32H171.739L169.542 28.4404L167.345 32H165.455L168.663 27.1924L165.552 22.4902H167.433L169.516 25.9619ZM177.461 20.1875V22.4902H179.236V23.7471H177.461V29.6445C177.461 30.0254 177.54 30.3125 177.698 30.5059C177.856 30.6934 178.126 30.7871 178.507 30.7871C178.694 30.7871 178.952 30.752 179.28 30.6816V32C178.853 32.1172 178.437 32.1758 178.032 32.1758C177.306 32.1758 176.758 31.9561 176.389 31.5166C176.02 31.0771 175.835 30.4531 175.835 29.6445V23.7471H174.104V22.4902H175.835V20.1875H177.461ZM194.028 29.7588L195.856 22.4902H197.482L194.714 32H193.396L191.084 24.793L188.834 32H187.516L184.756 22.4902H186.373L188.245 29.6094L190.46 22.4902H191.77L194.028 29.7588ZM203.74 23.9492C203.494 23.9082 203.228 23.8877 202.94 23.8877C201.874 23.8877 201.15 24.3418 200.77 25.25V32H199.144V22.4902H200.726L200.752 23.5889C201.285 22.7393 202.041 22.3145 203.02 22.3145C203.336 22.3145 203.576 22.3555 203.74 22.4375V23.9492ZM207.01 32H205.384V22.4902H207.01V32ZM205.252 19.9678C205.252 19.7041 205.331 19.4814 205.489 19.2998C205.653 19.1182 205.894 19.0273 206.21 19.0273C206.526 19.0273 206.767 19.1182 206.931 19.2998C207.095 19.4814 207.177 19.7041 207.177 19.9678C207.177 20.2314 207.095 20.4512 206.931 20.627C206.767 20.8027 206.526 20.8906 206.21 20.8906C205.894 20.8906 205.653 20.8027 205.489 20.627C205.331 20.4512 205.252 20.2314 205.252 19.9678ZM211.826 20.1875V22.4902H213.602V23.7471H211.826V29.6445C211.826 30.0254 211.905 30.3125 212.063 30.5059C212.222 30.6934 212.491 30.7871 212.872 30.7871C213.06 30.7871 213.317 30.752 213.646 30.6816V32C213.218 32.1172 212.802 32.1758 212.397 32.1758C211.671 32.1758 211.123 31.9561 210.754 31.5166C210.385 31.0771 210.2 30.4531 210.2 29.6445V23.7471H208.469V22.4902H210.2V20.1875H211.826ZM217.275 32H215.649V22.4902H217.275V32ZM215.518 19.9678C215.518 19.7041 215.597 19.4814 215.755 19.2998C215.919 19.1182 216.159 19.0273 216.476 19.0273C216.792 19.0273 217.032 19.1182 217.196 19.2998C217.36 19.4814 217.442 19.7041 217.442 19.9678C217.442 20.2314 217.36 20.4512 217.196 20.627C217.032 20.8027 216.792 20.8906 216.476 20.8906C216.159 20.8906 215.919 20.8027 215.755 20.627C215.597 20.4512 215.518 20.2314 215.518 19.9678ZM221.424 22.4902L221.477 23.6855C222.203 22.7715 223.152 22.3145 224.324 22.3145C226.334 22.3145 227.348 23.4482 227.365 25.7158V32H225.739V25.707C225.733 25.0215 225.575 24.5146 225.265 24.1865C224.96 23.8584 224.482 23.6943 223.832 23.6943C223.305 23.6943 222.842 23.835 222.443 24.1162C222.045 24.3975 221.734 24.7666 221.512 25.2236V32H219.886V22.4902H221.424ZM229.431 27.166C229.431 25.6836 229.773 24.5059 230.459 23.6328C231.145 22.7539 232.053 22.3145 233.184 22.3145C234.344 22.3145 235.249 22.7246 235.899 23.5449L235.979 22.4902H237.464V31.7715C237.464 33.002 237.098 33.9717 236.365 34.6807C235.639 35.3896 234.66 35.7441 233.43 35.7441C232.744 35.7441 232.073 35.5977 231.417 35.3047C230.761 35.0117 230.26 34.6104 229.914 34.1006L230.758 33.125C231.455 33.9863 232.308 34.417 233.315 34.417C234.106 34.417 234.722 34.1943 235.161 33.749C235.606 33.3037 235.829 32.6768 235.829 31.8682V31.0508C235.179 31.8008 234.291 32.1758 233.166 32.1758C232.053 32.1758 231.15 31.7275 230.459 30.8311C229.773 29.9346 229.431 28.7129 229.431 27.166ZM231.065 27.3506C231.065 28.4229 231.285 29.2666 231.725 29.8818C232.164 30.4912 232.779 30.7959 233.57 30.7959C234.596 30.7959 235.349 30.3301 235.829 29.3984V25.0566C235.331 24.1484 234.584 23.6943 233.588 23.6943C232.797 23.6943 232.179 24.002 231.733 24.6172C231.288 25.2324 231.065 26.1436 231.065 27.3506ZM21.5254 53H19.8994V39.5H21.5254V53ZM23.7051 48.1572C23.7051 47.2256 23.8867 46.3877 24.25 45.6436C24.6191 44.8994 25.1289 44.3252 25.7793 43.9209C26.4355 43.5166 27.1826 43.3145 28.0205 43.3145C29.3154 43.3145 30.3613 43.7627 31.1582 44.6592C31.9609 45.5557 32.3623 46.748 32.3623 48.2363V48.3506C32.3623 49.2764 32.1836 50.1084 31.8262 50.8467C31.4746 51.5791 30.9678 52.1504 30.3057 52.5605C29.6494 52.9707 28.8936 53.1758 28.0381 53.1758C26.749 53.1758 25.7031 52.7275 24.9004 51.8311C24.1035 50.9346 23.7051 49.748 23.7051 48.2715V48.1572ZM25.3398 48.3506C25.3398 49.4053 25.583 50.252 26.0693 50.8906C26.5615 51.5293 27.2178 51.8486 28.0381 51.8486C28.8643 51.8486 29.5205 51.5264 30.0068 50.8818C30.4932 50.2314 30.7363 49.3232 30.7363 48.1572C30.7363 47.1143 30.4873 46.2705 29.9893 45.626C29.4971 44.9756 28.8408 44.6504 28.0205 44.6504C27.2178 44.6504 26.5703 44.9697 26.0781 45.6084C25.5859 46.2471 25.3398 47.1611 25.3398 48.3506ZM38.998 44.9492C38.752 44.9082 38.4854 44.8877 38.1982 44.8877C37.1318 44.8877 36.4082 45.3418 36.0273 46.25V53H34.4014V43.4902H35.9834L36.0098 44.5889C36.543 43.7393 37.2988 43.3145 38.2773 43.3145C38.5938 43.3145 38.834 43.3555 38.998 43.4375V44.9492ZM44.2715 53.1758C42.9824 53.1758 41.9336 52.7539 41.125 51.9102C40.3164 51.0605 39.9121 49.9268 39.9121 48.5088V48.21C39.9121 47.2666 40.0908 46.4258 40.4482 45.6875C40.8115 44.9434 41.3154 44.3633 41.96 43.9473C42.6104 43.5254 43.3135 43.3145 44.0693 43.3145C45.3057 43.3145 46.2666 43.7217 46.9521 44.5361C47.6377 45.3506 47.9805 46.5166 47.9805 48.0342V48.7109H41.5381C41.5615 49.6484 41.834 50.4072 42.3555 50.9873C42.8828 51.5615 43.5508 51.8486 44.3594 51.8486C44.9336 51.8486 45.4199 51.7314 45.8184 51.4971C46.2168 51.2627 46.5654 50.9521 46.8643 50.5654L47.8574 51.3389C47.0605 52.5635 45.8652 53.1758 44.2715 53.1758ZM44.0693 44.6504C43.4131 44.6504 42.8623 44.8906 42.417 45.3711C41.9717 45.8457 41.6963 46.5137 41.5908 47.375H46.3545V47.252C46.3076 46.4258 46.085 45.7871 45.6865 45.3359C45.2881 44.8789 44.749 44.6504 44.0693 44.6504ZM51.3994 43.4902L51.4434 44.5449C52.1406 43.7246 53.0811 43.3145 54.2646 43.3145C55.5947 43.3145 56.5 43.8242 56.9805 44.8438C57.2969 44.3867 57.707 44.0176 58.2109 43.7363C58.7207 43.4551 59.3213 43.3145 60.0127 43.3145C62.0986 43.3145 63.1592 44.4189 63.1943 46.6279V53H61.5684V46.7246C61.5684 46.0449 61.4131 45.5381 61.1025 45.2041C60.792 44.8643 60.2705 44.6943 59.5381 44.6943C58.9346 44.6943 58.4336 44.876 58.0352 45.2393C57.6367 45.5967 57.4053 46.0801 57.3408 46.6895V53H55.7061V46.7686C55.7061 45.3857 55.0293 44.6943 53.6758 44.6943C52.6094 44.6943 51.8799 45.1484 51.4873 46.0566V53H49.8613V43.4902H51.3994ZM74.0664 53.1758C72.7773 53.1758 71.7285 52.7539 70.9199 51.9102C70.1113 51.0605 69.707 49.9268 69.707 48.5088V48.21C69.707 47.2666 69.8857 46.4258 70.2432 45.6875C70.6064 44.9434 71.1104 44.3633 71.7549 43.9473C72.4053 43.5254 73.1084 43.3145 73.8643 43.3145C75.1006 43.3145 76.0615 43.7217 76.7471 44.5361C77.4326 45.3506 77.7754 46.5166 77.7754 48.0342V48.7109H71.333C71.3564 49.6484 71.6289 50.4072 72.1504 50.9873C72.6777 51.5615 73.3457 51.8486 74.1543 51.8486C74.7285 51.8486 75.2148 51.7314 75.6133 51.4971C76.0117 51.2627 76.3604 50.9521 76.6592 50.5654L77.6523 51.3389C76.8555 52.5635 75.6602 53.1758 74.0664 53.1758ZM73.8643 44.6504C73.208 44.6504 72.6572 44.8906 72.2119 45.3711C71.7666 45.8457 71.4912 46.5137 71.3857 47.375H76.1494V47.252C76.1025 46.4258 75.8799 45.7871 75.4814 45.3359C75.083 44.8789 74.5439 44.6504 73.8643 44.6504ZM87.6982 48.3506C87.6982 49.7979 87.3672 50.9639 86.7051 51.8486C86.043 52.7334 85.1465 53.1758 84.0156 53.1758C82.8613 53.1758 81.9531 52.8096 81.291 52.0771V56.6562H79.665V43.4902H81.1504L81.2295 44.5449C81.8916 43.7246 82.8115 43.3145 83.9893 43.3145C85.1318 43.3145 86.0342 43.7451 86.6963 44.6064C87.3643 45.4678 87.6982 46.666 87.6982 48.2012V48.3506ZM86.0723 48.166C86.0723 47.0938 85.8438 46.2471 85.3867 45.626C84.9297 45.0049 84.3027 44.6943 83.5059 44.6943C82.5215 44.6943 81.7832 45.1309 81.291 46.0039V50.5479C81.7773 51.415 82.5215 51.8486 83.5234 51.8486C84.3027 51.8486 84.9209 51.541 85.3779 50.9258C85.8408 50.3047 86.0723 49.3848 86.0723 48.166ZM95.3096 50.4775C95.3096 50.0381 95.1426 49.6982 94.8086 49.458C94.4805 49.2119 93.9033 49.001 93.0771 48.8252C92.2568 48.6494 91.6035 48.4385 91.1172 48.1924C90.6367 47.9463 90.2793 47.6533 90.0449 47.3135C89.8164 46.9736 89.7021 46.5693 89.7021 46.1006C89.7021 45.3213 90.0303 44.6621 90.6865 44.123C91.3486 43.584 92.1924 43.3145 93.2178 43.3145C94.2959 43.3145 95.1689 43.5928 95.8369 44.1494C96.5107 44.7061 96.8477 45.418 96.8477 46.2852H95.2129C95.2129 45.8398 95.0225 45.4561 94.6416 45.1338C94.2666 44.8115 93.792 44.6504 93.2178 44.6504C92.626 44.6504 92.1631 44.7793 91.8291 45.0371C91.4951 45.2949 91.3281 45.6318 91.3281 46.0479C91.3281 46.4404 91.4834 46.7363 91.7939 46.9355C92.1045 47.1348 92.6641 47.3252 93.4727 47.5068C94.2871 47.6885 94.9463 47.9053 95.4502 48.1572C95.9541 48.4092 96.3262 48.7139 96.5664 49.0713C96.8125 49.4229 96.9355 49.8535 96.9355 50.3633C96.9355 51.2129 96.5957 51.8955 95.916 52.4111C95.2363 52.9209 94.3545 53.1758 93.2705 53.1758C92.5088 53.1758 91.835 53.041 91.249 52.7715C90.6631 52.502 90.2031 52.127 89.8691 51.6465C89.541 51.1602 89.377 50.6357 89.377 50.0732H91.0029C91.0322 50.6182 91.249 51.0518 91.6533 51.374C92.0635 51.6904 92.6025 51.8486 93.2705 51.8486C93.8857 51.8486 94.3779 51.7256 94.7471 51.4795C95.1221 51.2275 95.3096 50.8936 95.3096 50.4775ZM104.925 52.0596C104.292 52.8037 103.363 53.1758 102.139 53.1758C101.125 53.1758 100.352 52.8828 99.8184 52.2969C99.291 51.7051 99.0244 50.832 99.0186 49.6777V43.4902H100.645V49.6338C100.645 51.0752 101.23 51.7959 102.402 51.7959C103.645 51.7959 104.471 51.333 104.881 50.4072V43.4902H106.507V53H104.96L104.925 52.0596ZM110.515 43.4902L110.559 44.5449C111.256 43.7246 112.196 43.3145 113.38 43.3145C114.71 43.3145 115.615 43.8242 116.096 44.8438C116.412 44.3867 116.822 44.0176 117.326 43.7363C117.836 43.4551 118.437 43.3145 119.128 43.3145C121.214 43.3145 122.274 44.4189 122.31 46.6279V53H120.684V46.7246C120.684 46.0449 120.528 45.5381 120.218 45.2041C119.907 44.8643 119.386 44.6943 118.653 44.6943C118.05 44.6943 117.549 44.876 117.15 45.2393C116.752 45.5967 116.521 46.0801 116.456 46.6895V53H114.821V46.7686C114.821 45.3857 114.145 44.6943 112.791 44.6943C111.725 44.6943 110.995 45.1484 110.603 46.0566V53H108.977V43.4902H110.515ZM133.05 51.8486C133.63 51.8486 134.137 51.6729 134.57 51.3213C135.004 50.9697 135.244 50.5303 135.291 50.0029H136.829C136.8 50.5479 136.612 51.0664 136.267 51.5586C135.921 52.0508 135.458 52.4434 134.878 52.7363C134.304 53.0293 133.694 53.1758 133.05 53.1758C131.755 53.1758 130.724 52.7451 129.956 51.8838C129.194 51.0166 128.813 49.833 128.813 48.333V48.0605C128.813 47.1348 128.983 46.3115 129.323 45.5908C129.663 44.8701 130.149 44.3105 130.782 43.9121C131.421 43.5137 132.174 43.3145 133.041 43.3145C134.107 43.3145 134.992 43.6338 135.695 44.2725C136.404 44.9111 136.782 45.7402 136.829 46.7598H135.291C135.244 46.1445 135.01 45.6406 134.588 45.248C134.172 44.8496 133.656 44.6504 133.041 44.6504C132.215 44.6504 131.573 44.9492 131.116 45.5469C130.665 46.1387 130.439 46.9971 130.439 48.1221V48.4297C130.439 49.5254 130.665 50.3691 131.116 50.9609C131.567 51.5527 132.212 51.8486 133.05 51.8486ZM144.528 53C144.435 52.8125 144.358 52.4785 144.3 51.998C143.544 52.7832 142.642 53.1758 141.593 53.1758C140.655 53.1758 139.885 52.9121 139.281 52.3848C138.684 51.8516 138.385 51.1777 138.385 50.3633C138.385 49.373 138.76 48.6055 139.51 48.0605C140.266 47.5098 141.326 47.2344 142.691 47.2344H144.273V46.4873C144.273 45.9189 144.104 45.4678 143.764 45.1338C143.424 44.7939 142.923 44.624 142.261 44.624C141.681 44.624 141.194 44.7705 140.802 45.0635C140.409 45.3564 140.213 45.7109 140.213 46.127H138.578C138.578 45.6523 138.745 45.1953 139.079 44.7559C139.419 44.3105 139.876 43.959 140.45 43.7012C141.03 43.4434 141.666 43.3145 142.357 43.3145C143.453 43.3145 144.312 43.5898 144.933 44.1406C145.554 44.6855 145.876 45.4385 145.899 46.3994V50.7764C145.899 51.6494 146.011 52.3438 146.233 52.8594V53H144.528ZM141.83 51.7607C142.34 51.7607 142.823 51.6289 143.28 51.3652C143.737 51.1016 144.068 50.7588 144.273 50.3369V48.3857H142.999C141.007 48.3857 140.011 48.9688 140.011 50.1348C140.011 50.6445 140.181 51.043 140.521 51.3301C140.86 51.6172 141.297 51.7607 141.83 51.7607ZM153.045 44.9492C152.799 44.9082 152.532 44.8877 152.245 44.8877C151.179 44.8877 150.455 45.3418 150.074 46.25V53H148.448V43.4902H150.03L150.057 44.5889C150.59 43.7393 151.346 43.3145 152.324 43.3145C152.641 43.3145 152.881 43.3555 153.045 43.4375V44.9492ZM156.314 53H154.688V43.4902H156.314V53ZM154.557 40.9678C154.557 40.7041 154.636 40.4814 154.794 40.2998C154.958 40.1182 155.198 40.0273 155.515 40.0273C155.831 40.0273 156.071 40.1182 156.235 40.2998C156.399 40.4814 156.481 40.7041 156.481 40.9678C156.481 41.2314 156.399 41.4512 156.235 41.627C156.071 41.8027 155.831 41.8906 155.515 41.8906C155.198 41.8906 154.958 41.8027 154.794 41.627C154.636 41.4512 154.557 41.2314 154.557 40.9678ZM162.871 53.1758C161.582 53.1758 160.533 52.7539 159.725 51.9102C158.916 51.0605 158.512 49.9268 158.512 48.5088V48.21C158.512 47.2666 158.69 46.4258 159.048 45.6875C159.411 44.9434 159.915 44.3633 160.56 43.9473C161.21 43.5254 161.913 43.3145 162.669 43.3145C163.905 43.3145 164.866 43.7217 165.552 44.5361C166.237 45.3506 166.58 46.5166 166.58 48.0342V48.7109H160.138C160.161 49.6484 160.434 50.4072 160.955 50.9873C161.482 51.5615 162.15 51.8486 162.959 51.8486C163.533 51.8486 164.02 51.7314 164.418 51.4971C164.816 51.2627 165.165 50.9521 165.464 50.5654L166.457 51.3389C165.66 52.5635 164.465 53.1758 162.871 53.1758ZM162.669 44.6504C162.013 44.6504 161.462 44.8906 161.017 45.3711C160.571 45.8457 160.296 46.5137 160.19 47.375H164.954V47.252C164.907 46.4258 164.685 45.7871 164.286 45.3359C163.888 44.8789 163.349 44.6504 162.669 44.6504ZM178.806 53C178.712 52.8125 178.636 52.4785 178.577 51.998C177.821 52.7832 176.919 53.1758 175.87 53.1758C174.933 53.1758 174.162 52.9121 173.559 52.3848C172.961 51.8516 172.662 51.1777 172.662 50.3633C172.662 49.373 173.037 48.6055 173.787 48.0605C174.543 47.5098 175.604 47.2344 176.969 47.2344H178.551V46.4873C178.551 45.9189 178.381 45.4678 178.041 45.1338C177.701 44.7939 177.2 44.624 176.538 44.624C175.958 44.624 175.472 44.7705 175.079 45.0635C174.687 45.3564 174.49 45.7109 174.49 46.127H172.855C172.855 45.6523 173.022 45.1953 173.356 44.7559C173.696 44.3105 174.153 43.959 174.728 43.7012C175.308 43.4434 175.943 43.3145 176.635 43.3145C177.73 43.3145 178.589 43.5898 179.21 44.1406C179.831 44.6855 180.153 45.4385 180.177 46.3994V50.7764C180.177 51.6494 180.288 52.3438 180.511 52.8594V53H178.806ZM176.107 51.7607C176.617 51.7607 177.101 51.6289 177.558 51.3652C178.015 51.1016 178.346 50.7588 178.551 50.3369V48.3857H177.276C175.284 48.3857 174.288 48.9688 174.288 50.1348C174.288 50.6445 174.458 51.043 174.798 51.3301C175.138 51.6172 175.574 51.7607 176.107 51.7607ZM184.404 43.4902V54.0986C184.404 55.9268 183.575 56.8408 181.917 56.8408C181.56 56.8408 181.229 56.7881 180.924 56.6826V55.3818C181.111 55.4287 181.357 55.4521 181.662 55.4521C182.025 55.4521 182.301 55.3525 182.488 55.1533C182.682 54.96 182.778 54.6201 182.778 54.1338V43.4902H184.404ZM182.611 40.9678C182.611 40.71 182.69 40.4902 182.849 40.3086C183.013 40.1211 183.25 40.0273 183.561 40.0273C183.877 40.0273 184.117 40.1182 184.281 40.2998C184.445 40.4814 184.527 40.7041 184.527 40.9678C184.527 41.2314 184.445 41.4512 184.281 41.627C184.117 41.8027 183.877 41.8906 183.561 41.8906C183.244 41.8906 183.007 41.8027 182.849 41.627C182.69 41.4512 182.611 41.2314 182.611 40.9678ZM192.569 50.4775C192.569 50.0381 192.402 49.6982 192.068 49.458C191.74 49.2119 191.163 49.001 190.337 48.8252C189.517 48.6494 188.863 48.4385 188.377 48.1924C187.896 47.9463 187.539 47.6533 187.305 47.3135C187.076 46.9736 186.962 46.5693 186.962 46.1006C186.962 45.3213 187.29 44.6621 187.946 44.123C188.608 43.584 189.452 43.3145 190.478 43.3145C191.556 43.3145 192.429 43.5928 193.097 44.1494C193.771 44.7061 194.107 45.418 194.107 46.2852H192.473C192.473 45.8398 192.282 45.4561 191.901 45.1338C191.526 44.8115 191.052 44.6504 190.478 44.6504C189.886 44.6504 189.423 44.7793 189.089 45.0371C188.755 45.2949 188.588 45.6318 188.588 46.0479C188.588 46.4404 188.743 46.7363 189.054 46.9355C189.364 47.1348 189.924 47.3252 190.732 47.5068C191.547 47.6885 192.206 47.9053 192.71 48.1572C193.214 48.4092 193.586 48.7139 193.826 49.0713C194.072 49.4229 194.195 49.8535 194.195 50.3633C194.195 51.2129 193.855 51.8955 193.176 52.4111C192.496 52.9209 191.614 53.1758 190.53 53.1758C189.769 53.1758 189.095 53.041 188.509 52.7715C187.923 52.502 187.463 52.127 187.129 51.6465C186.801 51.1602 186.637 50.6357 186.637 50.0732H188.263C188.292 50.6182 188.509 51.0518 188.913 51.374C189.323 51.6904 189.862 51.8486 190.53 51.8486C191.146 51.8486 191.638 51.7256 192.007 51.4795C192.382 51.2275 192.569 50.8936 192.569 50.4775ZM195.918 48.166C195.918 46.707 196.264 45.5352 196.955 44.6504C197.646 43.7598 198.552 43.3145 199.671 43.3145C200.784 43.3145 201.666 43.6953 202.316 44.457V39.5H203.942V53H202.448L202.369 51.9805C201.719 52.7773 200.813 53.1758 199.653 53.1758C198.552 53.1758 197.652 52.7246 196.955 51.8223C196.264 50.9199 195.918 49.7422 195.918 48.2891V48.166ZM197.544 48.3506C197.544 49.4287 197.767 50.2725 198.212 50.8818C198.657 51.4912 199.272 51.7959 200.058 51.7959C201.089 51.7959 201.842 51.333 202.316 50.4072V46.0391C201.83 45.1426 201.083 44.6943 200.075 44.6943C199.278 44.6943 198.657 45.002 198.212 45.6172C197.767 46.2324 197.544 47.1436 197.544 48.3506ZM208.012 43.4902L208.064 44.6855C208.791 43.7715 209.74 43.3145 210.912 43.3145C212.922 43.3145 213.936 44.4482 213.953 46.7158V53H212.327V46.707C212.321 46.0215 212.163 45.5146 211.853 45.1865C211.548 44.8584 211.07 44.6943 210.42 44.6943C209.893 44.6943 209.43 44.835 209.031 45.1162C208.633 45.3975 208.322 45.7666 208.1 46.2236V53H206.474V43.4902H208.012ZM217.943 43.4902L217.996 44.6855C218.723 43.7715 219.672 43.3145 220.844 43.3145C222.854 43.3145 223.867 44.4482 223.885 46.7158V53H222.259V46.707C222.253 46.0215 222.095 45.5146 221.784 45.1865C221.479 44.8584 221.002 44.6943 220.352 44.6943C219.824 44.6943 219.361 44.835 218.963 45.1162C218.564 45.3975 218.254 45.7666 218.031 46.2236V53H216.405V43.4902H217.943ZM227.137 53V44.7471H225.634V43.4902H227.137V42.5146C227.137 41.4951 227.409 40.707 227.954 40.1504C228.499 39.5938 229.27 39.3154 230.266 39.3154C230.641 39.3154 231.013 39.3652 231.382 39.4648L231.294 40.7832C231.019 40.7305 230.726 40.7041 230.415 40.7041C229.888 40.7041 229.48 40.8594 229.193 41.1699C228.906 41.4746 228.763 41.9141 228.763 42.4883V43.4902H230.793V44.7471H228.763V53H227.137ZM240.646 48.3506C240.646 49.8037 240.312 50.9727 239.644 51.8574C238.976 52.7363 238.079 53.1758 236.954 53.1758C235.753 53.1758 234.824 52.751 234.168 51.9014L234.089 53H232.595V39.5H234.221V44.5361C234.877 43.7217 235.782 43.3145 236.937 43.3145C238.091 43.3145 238.996 43.751 239.652 44.624C240.314 45.4971 240.646 46.6924 240.646 48.21V48.3506ZM239.02 48.166C239.02 47.0586 238.806 46.2031 238.378 45.5996C237.95 44.9961 237.335 44.6943 236.532 44.6943C235.46 44.6943 234.689 45.1924 234.221 46.1885V50.3018C234.719 51.2979 235.495 51.7959 236.55 51.7959C237.329 51.7959 237.936 51.4941 238.369 50.8906C238.803 50.2871 239.02 49.3789 239.02 48.166ZM32.9512 69.166C32.9512 67.707 33.2969 66.5352 33.9883 65.6504C34.6797 64.7598 35.585 64.3145 36.7041 64.3145C37.8174 64.3145 38.6992 64.6953 39.3496 65.457V60.5H40.9756V74H39.4814L39.4023 72.9805C38.752 73.7773 37.8467 74.1758 36.6865 74.1758C35.585 74.1758 34.6855 73.7246 33.9883 72.8223C33.2969 71.9199 32.9512 70.7422 32.9512 69.2891V69.166ZM34.5771 69.3506C34.5771 70.4287 34.7998 71.2725 35.2451 71.8818C35.6904 72.4912 36.3057 72.7959 37.0908 72.7959C38.1221 72.7959 38.875 72.333 39.3496 71.4072V67.0391C38.8633 66.1426 38.1162 65.6943 37.1084 65.6943C36.3115 65.6943 35.6904 66.002 35.2451 66.6172C34.7998 67.2324 34.5771 68.1436 34.5771 69.3506ZM47.4531 74.1758C46.1641 74.1758 45.1152 73.7539 44.3066 72.9102C43.498 72.0605 43.0938 70.9268 43.0938 69.5088V69.21C43.0938 68.2666 43.2725 67.4258 43.6299 66.6875C43.9932 65.9434 44.4971 65.3633 45.1416 64.9473C45.792 64.5254 46.4951 64.3145 47.251 64.3145C48.4873 64.3145 49.4482 64.7217 50.1338 65.5361C50.8193 66.3506 51.1621 67.5166 51.1621 69.0342V69.7109H44.7197C44.7432 70.6484 45.0156 71.4072 45.5371 71.9873C46.0645 72.5615 46.7324 72.8486 47.541 72.8486C48.1152 72.8486 48.6016 72.7314 49 72.4971C49.3984 72.2627 49.7471 71.9521 50.0459 71.5654L51.0391 72.3389C50.2422 73.5635 49.0469 74.1758 47.4531 74.1758ZM47.251 65.6504C46.5947 65.6504 46.0439 65.8906 45.5986 66.3711C45.1533 66.8457 44.8779 67.5137 44.7725 68.375H49.5361V68.252C49.4893 67.4258 49.2666 66.7871 48.8682 66.3359C48.4697 65.8789 47.9307 65.6504 47.251 65.6504ZM52.6211 69.1572C52.6211 68.2256 52.8027 67.3877 53.166 66.6436C53.5352 65.8994 54.0449 65.3252 54.6953 64.9209C55.3516 64.5166 56.0986 64.3145 56.9365 64.3145C58.2314 64.3145 59.2773 64.7627 60.0742 65.6592C60.877 66.5557 61.2783 67.748 61.2783 69.2363V69.3506C61.2783 70.2764 61.0996 71.1084 60.7422 71.8467C60.3906 72.5791 59.8838 73.1504 59.2217 73.5605C58.5654 73.9707 57.8096 74.1758 56.9541 74.1758C55.665 74.1758 54.6191 73.7275 53.8164 72.8311C53.0195 71.9346 52.6211 70.748 52.6211 69.2715V69.1572ZM54.2559 69.3506C54.2559 70.4053 54.499 71.252 54.9854 71.8906C55.4775 72.5293 56.1338 72.8486 56.9541 72.8486C57.7803 72.8486 58.4365 72.5264 58.9229 71.8818C59.4092 71.2314 59.6523 70.3232 59.6523 69.1572C59.6523 68.1143 59.4033 67.2705 58.9053 66.626C58.4131 65.9756 57.7568 65.6504 56.9365 65.6504C56.1338 65.6504 55.4863 65.9697 54.9941 66.6084C54.502 67.2471 54.2559 68.1611 54.2559 69.3506ZM68.8545 71.4775C68.8545 71.0381 68.6875 70.6982 68.3535 70.458C68.0254 70.2119 67.4482 70.001 66.6221 69.8252C65.8018 69.6494 65.1484 69.4385 64.6621 69.1924C64.1816 68.9463 63.8242 68.6533 63.5898 68.3135C63.3613 67.9736 63.2471 67.5693 63.2471 67.1006C63.2471 66.3213 63.5752 65.6621 64.2314 65.123C64.8936 64.584 65.7373 64.3145 66.7627 64.3145C67.8408 64.3145 68.7139 64.5928 69.3818 65.1494C70.0557 65.7061 70.3926 66.418 70.3926 67.2852H68.7578C68.7578 66.8398 68.5674 66.4561 68.1865 66.1338C67.8115 65.8115 67.3369 65.6504 66.7627 65.6504C66.1709 65.6504 65.708 65.7793 65.374 66.0371C65.04 66.2949 64.873 66.6318 64.873 67.0479C64.873 67.4404 65.0283 67.7363 65.3389 67.9355C65.6494 68.1348 66.209 68.3252 67.0176 68.5068C67.832 68.6885 68.4912 68.9053 68.9951 69.1572C69.499 69.4092 69.8711 69.7139 70.1113 70.0713C70.3574 70.4229 70.4805 70.8535 70.4805 71.3633C70.4805 72.2129 70.1406 72.8955 69.4609 73.4111C68.7812 73.9209 67.8994 74.1758 66.8154 74.1758C66.0537 74.1758 65.3799 74.041 64.7939 73.7715C64.208 73.502 63.748 73.127 63.4141 72.6465C63.0859 72.1602 62.9219 71.6357 62.9219 71.0732H64.5479C64.5771 71.6182 64.7939 72.0518 65.1982 72.374C65.6084 72.6904 66.1475 72.8486 66.8154 72.8486C67.4307 72.8486 67.9229 72.7256 68.292 72.4795C68.667 72.2275 68.8545 71.8936 68.8545 71.4775ZM78.4697 73.0596C77.8369 73.8037 76.9082 74.1758 75.6836 74.1758C74.6699 74.1758 73.8965 73.8828 73.3633 73.2969C72.8359 72.7051 72.5693 71.832 72.5635 70.6777V64.4902H74.1895V70.6338C74.1895 72.0752 74.7754 72.7959 75.9473 72.7959C77.1895 72.7959 78.0156 72.333 78.4258 71.4072V64.4902H80.0518V74H78.5049L78.4697 73.0596ZM84.0684 64.4902L84.1211 65.6855C84.8477 64.7715 85.7969 64.3145 86.9688 64.3145C88.9785 64.3145 89.9922 65.4482 90.0098 67.7158V74H88.3838V67.707C88.3779 67.0215 88.2197 66.5146 87.9092 66.1865C87.6045 65.8584 87.127 65.6943 86.4766 65.6943C85.9492 65.6943 85.4863 65.835 85.0879 66.1162C84.6895 66.3975 84.3789 66.7666 84.1562 67.2236V74H82.5303V64.4902H84.0684ZM92.0752 69.166C92.0752 67.6836 92.418 66.5059 93.1035 65.6328C93.7891 64.7539 94.6973 64.3145 95.8281 64.3145C96.9883 64.3145 97.8936 64.7246 98.5439 65.5449L98.623 64.4902H100.108V73.7715C100.108 75.002 99.7422 75.9717 99.0098 76.6807C98.2832 77.3896 97.3047 77.7441 96.0742 77.7441C95.3887 77.7441 94.7178 77.5977 94.0615 77.3047C93.4053 77.0117 92.9043 76.6104 92.5586 76.1006L93.4023 75.125C94.0996 75.9863 94.9521 76.417 95.96 76.417C96.751 76.417 97.3662 76.1943 97.8057 75.749C98.251 75.3037 98.4736 74.6768 98.4736 73.8682V73.0508C97.8232 73.8008 96.9355 74.1758 95.8105 74.1758C94.6973 74.1758 93.7949 73.7275 93.1035 72.8311C92.418 71.9346 92.0752 70.7129 92.0752 69.166ZM93.71 69.3506C93.71 70.4229 93.9297 71.2666 94.3691 71.8818C94.8086 72.4912 95.4238 72.7959 96.2148 72.7959C97.2402 72.7959 97.9932 72.3301 98.4736 71.3984V67.0566C97.9756 66.1484 97.2285 65.6943 96.2324 65.6943C95.4414 65.6943 94.8232 66.002 94.3779 66.6172C93.9326 67.2324 93.71 68.1436 93.71 69.3506ZM108.713 64.4902V75.0986C108.713 76.9268 107.884 77.8408 106.226 77.8408C105.868 77.8408 105.537 77.7881 105.232 77.6826V76.3818C105.42 76.4287 105.666 76.4521 105.971 76.4521C106.334 76.4521 106.609 76.3525 106.797 76.1533C106.99 75.96 107.087 75.6201 107.087 75.1338V64.4902H108.713ZM106.92 61.9678C106.92 61.71 106.999 61.4902 107.157 61.3086C107.321 61.1211 107.559 61.0273 107.869 61.0273C108.186 61.0273 108.426 61.1182 108.59 61.2998C108.754 61.4814 108.836 61.7041 108.836 61.9678C108.836 62.2314 108.754 62.4512 108.59 62.627C108.426 62.8027 108.186 62.8906 107.869 62.8906C107.553 62.8906 107.315 62.8027 107.157 62.627C106.999 62.4512 106.92 62.2314 106.92 61.9678ZM113.107 74H111.481V64.4902H113.107V74ZM111.35 61.9678C111.35 61.7041 111.429 61.4814 111.587 61.2998C111.751 61.1182 111.991 61.0273 112.308 61.0273C112.624 61.0273 112.864 61.1182 113.028 61.2998C113.192 61.4814 113.274 61.7041 113.274 61.9678C113.274 62.2314 113.192 62.4512 113.028 62.627C112.864 62.8027 112.624 62.8906 112.308 62.8906C111.991 62.8906 111.751 62.8027 111.587 62.627C111.429 62.4512 111.35 62.2314 111.35 61.9678ZM123.769 69.3506C123.769 70.8037 123.435 71.9727 122.767 72.8574C122.099 73.7363 121.202 74.1758 120.077 74.1758C118.876 74.1758 117.947 73.751 117.291 72.9014L117.212 74H115.718V60.5H117.344V65.5361C118 64.7217 118.905 64.3145 120.06 64.3145C121.214 64.3145 122.119 64.751 122.775 65.624C123.438 66.4971 123.769 67.6924 123.769 69.21V69.3506ZM122.143 69.166C122.143 68.0586 121.929 67.2031 121.501 66.5996C121.073 65.9961 120.458 65.6943 119.655 65.6943C118.583 65.6943 117.812 66.1924 117.344 67.1885V71.3018C117.842 72.2979 118.618 72.7959 119.673 72.7959C120.452 72.7959 121.059 72.4941 121.492 71.8906C121.926 71.2871 122.143 70.3789 122.143 69.166ZM131.362 71.4775C131.362 71.0381 131.195 70.6982 130.861 70.458C130.533 70.2119 129.956 70.001 129.13 69.8252C128.31 69.6494 127.656 69.4385 127.17 69.1924C126.689 68.9463 126.332 68.6533 126.098 68.3135C125.869 67.9736 125.755 67.5693 125.755 67.1006C125.755 66.3213 126.083 65.6621 126.739 65.123C127.401 64.584 128.245 64.3145 129.271 64.3145C130.349 64.3145 131.222 64.5928 131.89 65.1494C132.563 65.7061 132.9 66.418 132.9 67.2852H131.266C131.266 66.8398 131.075 66.4561 130.694 66.1338C130.319 65.8115 129.845 65.6504 129.271 65.6504C128.679 65.6504 128.216 65.7793 127.882 66.0371C127.548 66.2949 127.381 66.6318 127.381 67.0479C127.381 67.4404 127.536 67.7363 127.847 67.9355C128.157 68.1348 128.717 68.3252 129.525 68.5068C130.34 68.6885 130.999 68.9053 131.503 69.1572C132.007 69.4092 132.379 69.7139 132.619 70.0713C132.865 70.4229 132.988 70.8535 132.988 71.3633C132.988 72.2129 132.648 72.8955 131.969 73.4111C131.289 73.9209 130.407 74.1758 129.323 74.1758C128.562 74.1758 127.888 74.041 127.302 73.7715C126.716 73.502 126.256 73.127 125.922 72.6465C125.594 72.1602 125.43 71.6357 125.43 71.0732H127.056C127.085 71.6182 127.302 72.0518 127.706 72.374C128.116 72.6904 128.655 72.8486 129.323 72.8486C129.938 72.8486 130.431 72.7256 130.8 72.4795C131.175 72.2275 131.362 71.8936 131.362 71.4775ZM140.978 73.0596C140.345 73.8037 139.416 74.1758 138.191 74.1758C137.178 74.1758 136.404 73.8828 135.871 73.2969C135.344 72.7051 135.077 71.832 135.071 70.6777V64.4902H136.697V70.6338C136.697 72.0752 137.283 72.7959 138.455 72.7959C139.697 72.7959 140.523 72.333 140.934 71.4072V64.4902H142.56V74H141.013L140.978 73.0596ZM146.567 64.4902L146.611 65.5449C147.309 64.7246 148.249 64.3145 149.433 64.3145C150.763 64.3145 151.668 64.8242 152.148 65.8438C152.465 65.3867 152.875 65.0176 153.379 64.7363C153.889 64.4551 154.489 64.3145 155.181 64.3145C157.267 64.3145 158.327 65.4189 158.362 67.6279V74H156.736V67.7246C156.736 67.0449 156.581 66.5381 156.271 66.2041C155.96 65.8643 155.438 65.6943 154.706 65.6943C154.103 65.6943 153.602 65.876 153.203 66.2393C152.805 66.5967 152.573 67.0801 152.509 67.6895V74H150.874V67.7686C150.874 66.3857 150.197 65.6943 148.844 65.6943C147.777 65.6943 147.048 66.1484 146.655 67.0566V74H145.029V64.4902H146.567ZM166.914 65.6416C167.635 64.7568 168.572 64.3145 169.727 64.3145C171.736 64.3145 172.75 65.4482 172.768 67.7158V74H171.142V67.707C171.136 67.0215 170.978 66.5146 170.667 66.1865C170.362 65.8584 169.885 65.6943 169.234 65.6943C168.707 65.6943 168.244 65.835 167.846 66.1162C167.447 66.3975 167.137 66.7666 166.914 67.2236V74H165.288V60.5H166.914V65.6416ZM181.073 74C180.979 73.8125 180.903 73.4785 180.845 72.998C180.089 73.7832 179.187 74.1758 178.138 74.1758C177.2 74.1758 176.43 73.9121 175.826 73.3848C175.229 72.8516 174.93 72.1777 174.93 71.3633C174.93 70.373 175.305 69.6055 176.055 69.0605C176.811 68.5098 177.871 68.2344 179.236 68.2344H180.818V67.4873C180.818 66.9189 180.648 66.4678 180.309 66.1338C179.969 65.7939 179.468 65.624 178.806 65.624C178.226 65.624 177.739 65.7705 177.347 66.0635C176.954 66.3564 176.758 66.7109 176.758 67.127H175.123C175.123 66.6523 175.29 66.1953 175.624 65.7559C175.964 65.3105 176.421 64.959 176.995 64.7012C177.575 64.4434 178.211 64.3145 178.902 64.3145C179.998 64.3145 180.856 64.5898 181.478 65.1406C182.099 65.6855 182.421 66.4385 182.444 67.3994V71.7764C182.444 72.6494 182.556 73.3438 182.778 73.8594V74H181.073ZM178.375 72.7607C178.885 72.7607 179.368 72.6289 179.825 72.3652C180.282 72.1016 180.613 71.7588 180.818 71.3369V69.3857H179.544C177.552 69.3857 176.556 69.9688 176.556 71.1348C176.556 71.6445 176.726 72.043 177.065 72.3301C177.405 72.6172 177.842 72.7607 178.375 72.7607ZM193.044 69.3506C193.044 70.8037 192.71 71.9727 192.042 72.8574C191.374 73.7363 190.478 74.1758 189.353 74.1758C188.151 74.1758 187.223 73.751 186.566 72.9014L186.487 74H184.993V60.5H186.619V65.5361C187.275 64.7217 188.181 64.3145 189.335 64.3145C190.489 64.3145 191.395 64.751 192.051 65.624C192.713 66.4971 193.044 67.6924 193.044 69.21V69.3506ZM191.418 69.166C191.418 68.0586 191.204 67.2031 190.776 66.5996C190.349 65.9961 189.733 65.6943 188.931 65.6943C187.858 65.6943 187.088 66.1924 186.619 67.1885V71.3018C187.117 72.2979 187.894 72.7959 188.948 72.7959C189.728 72.7959 190.334 72.4941 190.768 71.8906C191.201 71.2871 191.418 70.3789 191.418 69.166ZM196.867 74H195.241V64.4902H196.867V74ZM195.109 61.9678C195.109 61.7041 195.188 61.4814 195.347 61.2998C195.511 61.1182 195.751 61.0273 196.067 61.0273C196.384 61.0273 196.624 61.1182 196.788 61.2998C196.952 61.4814 197.034 61.7041 197.034 61.9678C197.034 62.2314 196.952 62.4512 196.788 62.627C196.624 62.8027 196.384 62.8906 196.067 62.8906C195.751 62.8906 195.511 62.8027 195.347 62.627C195.188 62.4512 195.109 62.2314 195.109 61.9678ZM205.349 73.0596C204.716 73.8037 203.787 74.1758 202.562 74.1758C201.549 74.1758 200.775 73.8828 200.242 73.2969C199.715 72.7051 199.448 71.832 199.442 70.6777V64.4902H201.068V70.6338C201.068 72.0752 201.654 72.7959 202.826 72.7959C204.068 72.7959 204.895 72.333 205.305 71.4072V64.4902H206.931V74H205.384L205.349 73.0596ZM209.014 69.166C209.014 67.707 209.359 66.5352 210.051 65.6504C210.742 64.7598 211.647 64.3145 212.767 64.3145C213.88 64.3145 214.762 64.6953 215.412 65.457V60.5H217.038V74H215.544L215.465 72.9805C214.814 73.7773 213.909 74.1758 212.749 74.1758C211.647 74.1758 210.748 73.7246 210.051 72.8223C209.359 71.9199 209.014 70.7422 209.014 69.2891V69.166ZM210.64 69.3506C210.64 70.4287 210.862 71.2725 211.308 71.8818C211.753 72.4912 212.368 72.7959 213.153 72.7959C214.185 72.7959 214.938 72.333 215.412 71.4072V67.0391C214.926 66.1426 214.179 65.6943 213.171 65.6943C212.374 65.6943 211.753 66.002 211.308 66.6172C210.862 67.2324 210.64 68.1436 210.64 69.3506ZM223.516 74.1758C222.227 74.1758 221.178 73.7539 220.369 72.9102C219.561 72.0605 219.156 70.9268 219.156 69.5088V69.21C219.156 68.2666 219.335 67.4258 219.692 66.6875C220.056 65.9434 220.56 65.3633 221.204 64.9473C221.854 64.5254 222.558 64.3145 223.313 64.3145C224.55 64.3145 225.511 64.7217 226.196 65.5361C226.882 66.3506 227.225 67.5166 227.225 69.0342V69.7109H220.782C220.806 70.6484 221.078 71.4072 221.6 71.9873C222.127 72.5615 222.795 72.8486 223.604 72.8486C224.178 72.8486 224.664 72.7314 225.062 72.4971C225.461 72.2627 225.81 71.9521 226.108 71.5654L227.102 72.3389C226.305 73.5635 225.109 74.1758 223.516 74.1758ZM223.313 65.6504C222.657 65.6504 222.106 65.8906 221.661 66.3711C221.216 66.8457 220.94 67.5137 220.835 68.375H225.599V68.252C225.552 67.4258 225.329 66.7871 224.931 66.3359C224.532 65.8789 223.993 65.6504 223.313 65.6504Z" fill="black"/>
</svg>
