<svg width="250" height="300" viewBox="0 0 250 300" fill="none" xmlns="http://www.w3.org/2000/svg">
<rect width="250" height="300" fill="#E5E5E5"/>
<path d="M0 0H250V300H0V0Z" fill="#C4C4C4"/>
<path d="M0 0H250V65H0V0Z" fill="#FFFBFB"/>
<path d="M63.2646 27.5918H59.1514V39H57.4727V27.5918H53.3682V26.2031H63.2646V27.5918ZM66.5342 30.6416C67.2549 29.7568 68.1924 29.3145 69.3467 29.3145C71.3564 29.3145 72.3701 30.4482 72.3877 32.7158V39H70.7617V32.707C70.7559 32.0215 70.5977 31.5146 70.2871 31.1865C69.9824 30.8584 69.5049 30.6943 68.8545 30.6943C68.3271 30.6943 67.8643 30.835 67.4658 31.1162C67.0674 31.3975 66.7568 31.7666 66.5342 32.2236V39H64.9082V25.5H66.5342V30.6416ZM76.5889 39H74.9629V29.4902H76.5889V39ZM74.8311 26.9678C74.8311 26.7041 74.9102 26.4814 75.0684 26.2998C75.2324 26.1182 75.4727 26.0273 75.7891 26.0273C76.1055 26.0273 76.3457 26.1182 76.5098 26.2998C76.6738 26.4814 76.7559 26.7041 76.7559 26.9678C76.7559 27.2314 76.6738 27.4512 76.5098 27.627C76.3457 27.8027 76.1055 27.8906 75.7891 27.8906C75.4727 27.8906 75.2324 27.8027 75.0684 27.627C74.9102 27.4512 74.8311 27.2314 74.8311 26.9678ZM84.7363 36.4775C84.7363 36.0381 84.5693 35.6982 84.2354 35.458C83.9072 35.2119 83.3301 35.001 82.5039 34.8252C81.6836 34.6494 81.0303 34.4385 80.5439 34.1924C80.0635 33.9463 79.7061 33.6533 79.4717 33.3135C79.2432 32.9736 79.1289 32.5693 79.1289 32.1006C79.1289 31.3213 79.457 30.6621 80.1133 30.123C80.7754 29.584 81.6191 29.3145 82.6445 29.3145C83.7227 29.3145 84.5957 29.5928 85.2637 30.1494C85.9375 30.7061 86.2744 31.418 86.2744 32.2852H84.6396C84.6396 31.8398 84.4492 31.4561 84.0684 31.1338C83.6934 30.8115 83.2188 30.6504 82.6445 30.6504C82.0527 30.6504 81.5898 30.7793 81.2559 31.0371C80.9219 31.2949 80.7549 31.6318 80.7549 32.0479C80.7549 32.4404 80.9102 32.7363 81.2207 32.9355C81.5312 33.1348 82.0908 33.3252 82.8994 33.5068C83.7139 33.6885 84.373 33.9053 84.877 34.1572C85.3809 34.4092 85.7529 34.7139 85.9932 35.0713C86.2393 35.4229 86.3623 35.8535 86.3623 36.3633C86.3623 37.2129 86.0225 37.8955 85.3428 38.4111C84.6631 38.9209 83.7812 39.1758 82.6973 39.1758C81.9355 39.1758 81.2617 39.041 80.6758 38.7715C80.0898 38.502 79.6299 38.127 79.2959 37.6465C78.9678 37.1602 78.8037 36.6357 78.8037 36.0732H80.4297C80.459 36.6182 80.6758 37.0518 81.0801 37.374C81.4902 37.6904 82.0293 37.8486 82.6973 37.8486C83.3125 37.8486 83.8047 37.7256 84.1738 37.4795C84.5488 37.2275 84.7363 36.8936 84.7363 36.4775ZM94.7119 39H93.0859V29.4902H94.7119V39ZM92.9541 26.9678C92.9541 26.7041 93.0332 26.4814 93.1914 26.2998C93.3555 26.1182 93.5957 26.0273 93.9121 26.0273C94.2285 26.0273 94.4688 26.1182 94.6328 26.2998C94.7969 26.4814 94.8789 26.7041 94.8789 26.9678C94.8789 27.2314 94.7969 27.4512 94.6328 27.627C94.4688 27.8027 94.2285 27.8906 93.9121 27.8906C93.5957 27.8906 93.3555 27.8027 93.1914 27.627C93.0332 27.4512 92.9541 27.2314 92.9541 26.9678ZM102.859 36.4775C102.859 36.0381 102.692 35.6982 102.358 35.458C102.03 35.2119 101.453 35.001 100.627 34.8252C99.8066 34.6494 99.1533 34.4385 98.667 34.1924C98.1865 33.9463 97.8291 33.6533 97.5947 33.3135C97.3662 32.9736 97.252 32.5693 97.252 32.1006C97.252 31.3213 97.5801 30.6621 98.2363 30.123C98.8984 29.584 99.7422 29.3145 100.768 29.3145C101.846 29.3145 102.719 29.5928 103.387 30.1494C104.061 30.7061 104.397 31.418 104.397 32.2852H102.763C102.763 31.8398 102.572 31.4561 102.191 31.1338C101.816 30.8115 101.342 30.6504 100.768 30.6504C100.176 30.6504 99.7129 30.7793 99.3789 31.0371C99.0449 31.2949 98.8779 31.6318 98.8779 32.0479C98.8779 32.4404 99.0332 32.7363 99.3438 32.9355C99.6543 33.1348 100.214 33.3252 101.022 33.5068C101.837 33.6885 102.496 33.9053 103 34.1572C103.504 34.4092 103.876 34.7139 104.116 35.0713C104.362 35.4229 104.485 35.8535 104.485 36.3633C104.485 37.2129 104.146 37.8955 103.466 38.4111C102.786 38.9209 101.904 39.1758 100.82 39.1758C100.059 39.1758 99.3848 39.041 98.7988 38.7715C98.2129 38.502 97.7529 38.127 97.4189 37.6465C97.0908 37.1602 96.9268 36.6357 96.9268 36.0732H98.5527C98.582 36.6182 98.7988 37.0518 99.2031 37.374C99.6133 37.6904 100.152 37.8486 100.82 37.8486C101.436 37.8486 101.928 37.7256 102.297 37.4795C102.672 37.2275 102.859 36.8936 102.859 36.4775ZM116.605 36.4775C116.605 36.0381 116.438 35.6982 116.104 35.458C115.776 35.2119 115.199 35.001 114.373 34.8252C113.553 34.6494 112.899 34.4385 112.413 34.1924C111.933 33.9463 111.575 33.6533 111.341 33.3135C111.112 32.9736 110.998 32.5693 110.998 32.1006C110.998 31.3213 111.326 30.6621 111.982 30.123C112.645 29.584 113.488 29.3145 114.514 29.3145C115.592 29.3145 116.465 29.5928 117.133 30.1494C117.807 30.7061 118.144 31.418 118.144 32.2852H116.509C116.509 31.8398 116.318 31.4561 115.938 31.1338C115.562 30.8115 115.088 30.6504 114.514 30.6504C113.922 30.6504 113.459 30.7793 113.125 31.0371C112.791 31.2949 112.624 31.6318 112.624 32.0479C112.624 32.4404 112.779 32.7363 113.09 32.9355C113.4 33.1348 113.96 33.3252 114.769 33.5068C115.583 33.6885 116.242 33.9053 116.746 34.1572C117.25 34.4092 117.622 34.7139 117.862 35.0713C118.108 35.4229 118.231 35.8535 118.231 36.3633C118.231 37.2129 117.892 37.8955 117.212 38.4111C116.532 38.9209 115.65 39.1758 114.566 39.1758C113.805 39.1758 113.131 39.041 112.545 38.7715C111.959 38.502 111.499 38.127 111.165 37.6465C110.837 37.1602 110.673 36.6357 110.673 36.0732H112.299C112.328 36.6182 112.545 37.0518 112.949 37.374C113.359 37.6904 113.898 37.8486 114.566 37.8486C115.182 37.8486 115.674 37.7256 116.043 37.4795C116.418 37.2275 116.605 36.8936 116.605 36.4775ZM126.221 39C126.127 38.8125 126.051 38.4785 125.992 37.998C125.236 38.7832 124.334 39.1758 123.285 39.1758C122.348 39.1758 121.577 38.9121 120.974 38.3848C120.376 37.8516 120.077 37.1777 120.077 36.3633C120.077 35.373 120.452 34.6055 121.202 34.0605C121.958 33.5098 123.019 33.2344 124.384 33.2344H125.966V32.4873C125.966 31.9189 125.796 31.4678 125.456 31.1338C125.116 30.7939 124.615 30.624 123.953 30.624C123.373 30.624 122.887 30.7705 122.494 31.0635C122.102 31.3564 121.905 31.7109 121.905 32.127H120.271C120.271 31.6523 120.438 31.1953 120.771 30.7559C121.111 30.3105 121.568 29.959 122.143 29.7012C122.723 29.4434 123.358 29.3145 124.05 29.3145C125.146 29.3145 126.004 29.5898 126.625 30.1406C127.246 30.6855 127.568 31.4385 127.592 32.3994V36.7764C127.592 37.6494 127.703 38.3438 127.926 38.8594V39H126.221ZM123.522 37.7607C124.032 37.7607 124.516 37.6289 124.973 37.3652C125.43 37.1016 125.761 36.7588 125.966 36.3369V34.3857H124.691C122.699 34.3857 121.703 34.9688 121.703 36.1348C121.703 36.6445 121.873 37.043 122.213 37.3301C122.553 37.6172 122.989 37.7607 123.522 37.7607ZM131.67 29.4902L131.714 30.5449C132.411 29.7246 133.352 29.3145 134.535 29.3145C135.865 29.3145 136.771 29.8242 137.251 30.8438C137.567 30.3867 137.978 30.0176 138.481 29.7363C138.991 29.4551 139.592 29.3145 140.283 29.3145C142.369 29.3145 143.43 30.4189 143.465 32.6279V39H141.839V32.7246C141.839 32.0449 141.684 31.5381 141.373 31.2041C141.062 30.8643 140.541 30.6943 139.809 30.6943C139.205 30.6943 138.704 30.876 138.306 31.2393C137.907 31.5967 137.676 32.0801 137.611 32.6895V39H135.977V32.7686C135.977 31.3857 135.3 30.6943 133.946 30.6943C132.88 30.6943 132.15 31.1484 131.758 32.0566V39H130.132V29.4902H131.67ZM153.959 34.3506C153.959 35.7979 153.628 36.9639 152.966 37.8486C152.304 38.7334 151.407 39.1758 150.276 39.1758C149.122 39.1758 148.214 38.8096 147.552 38.0771V42.6562H145.926V29.4902H147.411L147.49 30.5449C148.152 29.7246 149.072 29.3145 150.25 29.3145C151.393 29.3145 152.295 29.7451 152.957 30.6064C153.625 31.4678 153.959 32.666 153.959 34.2012V34.3506ZM152.333 34.166C152.333 33.0938 152.104 32.2471 151.647 31.626C151.19 31.0049 150.563 30.6943 149.767 30.6943C148.782 30.6943 148.044 31.1309 147.552 32.0039V36.5479C148.038 37.415 148.782 37.8486 149.784 37.8486C150.563 37.8486 151.182 37.541 151.639 36.9258C152.102 36.3047 152.333 35.3848 152.333 34.166ZM157.8 39H156.174V25.5H157.8V39ZM164.356 39.1758C163.067 39.1758 162.019 38.7539 161.21 37.9102C160.401 37.0605 159.997 35.9268 159.997 34.5088V34.21C159.997 33.2666 160.176 32.4258 160.533 31.6875C160.896 30.9434 161.4 30.3633 162.045 29.9473C162.695 29.5254 163.398 29.3145 164.154 29.3145C165.391 29.3145 166.352 29.7217 167.037 30.5361C167.723 31.3506 168.065 32.5166 168.065 34.0342V34.7109H161.623C161.646 35.6484 161.919 36.4072 162.44 36.9873C162.968 37.5615 163.636 37.8486 164.444 37.8486C165.019 37.8486 165.505 37.7314 165.903 37.4971C166.302 37.2627 166.65 36.9521 166.949 36.5654L167.942 37.3389C167.146 38.5635 165.95 39.1758 164.356 39.1758ZM164.154 30.6504C163.498 30.6504 162.947 30.8906 162.502 31.3711C162.057 31.8457 161.781 32.5137 161.676 33.375H166.439V33.252C166.393 32.4258 166.17 31.7871 165.771 31.3359C165.373 30.8789 164.834 30.6504 164.154 30.6504ZM183.165 27.5918H179.052V39H177.373V27.5918H173.269V26.2031H183.165V27.5918ZM187.876 39.1758C186.587 39.1758 185.538 38.7539 184.729 37.9102C183.921 37.0605 183.517 35.9268 183.517 34.5088V34.21C183.517 33.2666 183.695 32.4258 184.053 31.6875C184.416 30.9434 184.92 30.3633 185.564 29.9473C186.215 29.5254 186.918 29.3145 187.674 29.3145C188.91 29.3145 189.871 29.7217 190.557 30.5361C191.242 31.3506 191.585 32.5166 191.585 34.0342V34.7109H185.143C185.166 35.6484 185.438 36.4072 185.96 36.9873C186.487 37.5615 187.155 37.8486 187.964 37.8486C188.538 37.8486 189.024 37.7314 189.423 37.4971C189.821 37.2627 190.17 36.9521 190.469 36.5654L191.462 37.3389C190.665 38.5635 189.47 39.1758 187.876 39.1758ZM187.674 30.6504C187.018 30.6504 186.467 30.8906 186.021 31.3711C185.576 31.8457 185.301 32.5137 185.195 33.375H189.959V33.252C189.912 32.4258 189.689 31.7871 189.291 31.3359C188.893 30.8789 188.354 30.6504 187.674 30.6504ZM196.665 32.9619L198.774 29.4902H200.673L197.562 34.1924L200.77 39H198.889L196.691 35.4404L194.494 39H192.604L195.812 34.1924L192.701 29.4902H194.582L196.665 32.9619ZM204.61 27.1875V29.4902H206.386V30.7471H204.61V36.6445C204.61 37.0254 204.689 37.3125 204.848 37.5059C205.006 37.6934 205.275 37.7871 205.656 37.7871C205.844 37.7871 206.102 37.752 206.43 37.6816V39C206.002 39.1172 205.586 39.1758 205.182 39.1758C204.455 39.1758 203.907 38.9561 203.538 38.5166C203.169 38.0771 202.984 37.4531 202.984 36.6445V30.7471H201.253V29.4902H202.984V27.1875H204.61Z" fill="black"/>
</svg>
