<svg width="251" height="300" viewBox="0 0 251 300" fill="none" xmlns="http://www.w3.org/2000/svg">
<rect width="251" height="300" fill="#E5E5E5"/>
<path d="M0 27C0 12.0883 12.0883 0 27 0H223C237.912 0 250 12.0883 250 27V273C250 287.912 237.912 300 223 300H27C12.0883 300 0 287.912 0 273V27Z" fill="#C4C4C4"/>
<path d="M0 27C0 12.0883 12.0883 0 27 0H223C237.912 0 250 12.0883 250 27V70H0V27Z" fill="black"/>
<path d="M1 230H251V273C251 287.912 238.912 300 224 300H28C13.0883 300 1 287.912 1 273V230Z" fill="black"/>
</svg>
